STARTFONT 2.1
FONT -Monotype-Nimrod-Bold-I-Normal--33-240-100-100-P-216-iso8859-5
SIZE 24 100 100
FONTBOUNDINGBOX 50 40 -6 -8

STARTPROPERTIES 24
FOUNDRY "Monotype"
FAMILY_NAME "Nimrod"
WEIGHT_NAME "Bold"
SLANT "I"
SETWIDTH_NAME "Normal"
ADD_STYLE_NAME ""
PIXEL_SIZE 33
POINT_SIZE 240
RESOLUTION_X 100
RESOLUTION_Y 100
SPACING "P"
AVERAGE_WIDTH 216
CHARSET_REGISTRY "iso8859"
CHARSET_ENCODING "5"
FACE_NAME "Nimrod Bold Inclined ISO Latin Cyrillic"
_DEC_DEVICE_FONTNAMES "PS=nimrod-bin-latcyrillic"
COPYRIGHT "Copyright (c) 1993 Monotype Typography Ltd."
CAP_HEIGHT 29
X_HEIGHT 21
WEIGHT 10
QUAD_WIDTH 24
DEFAULT_CHAR 160
FONT_DESCENT 8
FONT_ASCENT 32
ENDPROPERTIES

CHARS 191

STARTCHAR space
ENCODING 32
SWIDTH 250 0
DWIDTH 8 0
BBX 0 0 0 0
BITMAP
ENDCHAR

STARTCHAR exclam
ENCODING 33
SWIDTH 375 0
DWIDTH 12 0
BBX 11 26 0 0
BITMAP
0080
03E0
03E0
03E0
07E0
07C0
07C0
0780
0780
0700
0700
0600
0600
0C00
0C00
0C00
0800
1800
0000
0000
3000
7800
FC00
FC00
7800
3000
ENDCHAR

STARTCHAR quotedbl
ENCODING 34
SWIDTH 552 0
DWIDTH 18 0
BBX 14 10 5 12
BITMAP
3C3C
7C78
7878
78F8
70F0
70F0
60E0
E0E0
C0C0
C080
ENDCHAR

STARTCHAR numbersign
ENCODING 35
SWIDTH 667 0
DWIDTH 22 0
BBX 20 23 1 0
BITMAP
0180C0
0181C0
0381C0
038180
030180
030180
030380
FFFFF0
FFFFF0
060300
060300
060700
0E0600
0C0600
0C0600
FFFFF0
FFFFF0
1C0C00
180C00
180C00
181C00
381C00
381800
ENDCHAR

STARTCHAR dollar
ENCODING 36
SWIDTH 510 0
DWIDTH 17 0
BBX 18 30 1 -5
BITMAP
000C00
000800
00FE00
03FB80
0799C0
0711C0
0F33C0
0F33C0
0F33C0
0FA180
07E000
07E000
03F000
01F800
00FC00
00FC00
00FE00
30BE00
F99E00
F99E00
F11E00
F11C00
E33C00
737800
3FE000
070000
060000
060000
040000
0C0000
ENDCHAR

STARTCHAR percent
ENCODING 37
SWIDTH 1000 0
DWIDTH 33 0
BBX 25 24 6 -1
BITMAP
07C00600
1EE00C00
3CF01800
3CF03000
78F06000
79F0C000
F9E0C000
F1E18000
F3C30000
F3C60000
778C0000
3E183E00
0018F700
0031E780
0061E780
00C3C780
0183CF80
0307CF00
03078F00
06079E00
0C079E00
1803BC00
3001F000
60000000
ENDCHAR

STARTCHAR ampersand
ENCODING 38
SWIDTH 927 0
DWIDTH 31 0
BBX 28 25 2 0
BITMAP
0007C000
001FF800
003C3C00
00781C00
00781C00
00F81C00
00F83C00
00F87800
00F9F000
007FC000
00FC0000
07FC1FF0
1F7E3FF0
3E3E07C0
7C3E0300
FC3F0600
F81F8600
F81F8C00
F80FF800
F807F020
FC07E060
7E03F0C0
7F0FFFC0
3FFCFF00
0FE03C00
ENDCHAR

STARTCHAR quoteright
ENCODING 39
SWIDTH 323 0
DWIDTH 11 0
BBX 7 10 5 15
BITMAP
3C
3E
7E
7E
3E
0C
1C
38
F0
C0
ENDCHAR

STARTCHAR parenleft
ENCODING 40
SWIDTH 385 0
DWIDTH 13 0
BBX 14 31 1 -6
BITMAP
001C
0038
0070
01E0
03C0
0780
0F80
0F00
1F00
3E00
3E00
7E00
7C00
7C00
FC00
FC00
F800
F800
F800
F800
F800
7800
7800
7800
3800
3800
1C00
1C00
0C00
0600
0600
ENDCHAR

STARTCHAR parenright
ENCODING 41
SWIDTH 385 0
DWIDTH 13 0
BBX 14 31 -2 -6
BITMAP
0180
00C0
00E0
00E0
0070
0070
0078
0078
0078
007C
007C
007C
007C
007C
007C
00FC
00F8
00F8
00F8
01F0
01F0
03E0
03E0
07C0
0780
0F00
1E00
1C00
3800
6000
C000
ENDCHAR

STARTCHAR asterisk
ENCODING 42
SWIDTH 552 0
DWIDTH 18 0
BBX 15 16 5 9
BITMAP
01C0
03E0
03E0
F3C0
F1C0
F980
FD1E
1E7E
03FE
1E3C
7B00
FBC0
F3C0
73E0
01E0
01C0
ENDCHAR

STARTCHAR plus
ENCODING 43
SWIDTH 667 0
DWIDTH 22 0
BBX 17 17 3 2
BITMAP
01C000
01C000
01C000
01C000
01C000
01C000
01C000
FFFF80
FFFF80
FFFF80
01C000
01C000
01C000
01C000
01C000
01C000
01C000
ENDCHAR

STARTCHAR comma
ENCODING 44
SWIDTH 323 0
DWIDTH 11 0
BBX 7 10 -1 -5
BITMAP
3C
7E
7E
7E
3E
0C
18
30
E0
80
ENDCHAR

STARTCHAR minus
ENCODING 45
SWIDTH 667 0
DWIDTH 22 0
BBX 18 3 2 9
BITMAP
FFFFC0
FFFFC0
FFFFC0
ENDCHAR

STARTCHAR period
ENCODING 46
SWIDTH 323 0
DWIDTH 11 0
BBX 6 6 0 0
BITMAP
30
78
FC
FC
78
30
ENDCHAR

STARTCHAR slash
ENCODING 47
SWIDTH 552 0
DWIDTH 18 0
BBX 16 28 1 -1
BITMAP
0007
0007
000E
000E
001C
001C
0038
0038
0070
0070
00E0
00E0
01C0
01C0
0380
0380
0700
0700
0E00
0E00
1C00
1C00
3800
3800
7000
7000
E000
E000
ENDCHAR

STARTCHAR zero
ENCODING 48
SWIDTH 562 0
DWIDTH 19 0
BBX 17 23 3 0
BITMAP
00F800
03FE00
078F00
0F8700
1F0780
1F0780
3E0780
3E0780
7E0F80
7C0F80
7C0F80
FC1F80
F81F00
F81F00
F81F00
F83E00
F03E00
F07C00
F07C00
707800
78F000
3FE000
0F8000
ENDCHAR

STARTCHAR one
ENCODING 49
SWIDTH 562 0
DWIDTH 19 0
BBX 15 23 2 0
BITMAP
000E
003C
07FC
07FC
00F8
00F8
00F8
00F8
00F0
01F0
01F0
01E0
03E0
03E0
03E0
03C0
07C0
07C0
0780
0780
0F80
FFF8
FFF8
ENDCHAR

STARTCHAR two
ENCODING 50
SWIDTH 562 0
DWIDTH 19 0
BBX 19 23 0 0
BITMAP
007E00
01FF80
0387C0
0303E0
0783E0
07C3E0
07C3E0
03C7E0
0387C0
000FC0
001F80
003E00
007C00
00F000
01E000
03C000
070080
0E0180
180380
3FFF00
7FFF00
FFFF00
FFFE00
ENDCHAR

STARTCHAR three
ENCODING 51
SWIDTH 562 0
DWIDTH 19 0
BBX 18 23 2 0
BITMAP
00FC00
03FF00
070F80
0F0780
0F87C0
0F07C0
0707C0
000F80
000F80
003F00
0FE400
07F800
003C00
001E00
001F00
701F00
F81F00
F81F00
F03E00
F07E00
70FC00
3FF800
07C000
ENDCHAR

STARTCHAR four
ENCODING 52
SWIDTH 562 0
DWIDTH 19 0
BBX 18 23 2 0
BITMAP
0001C0
000380
000780
000F80
001F80
002F00
007F00
01DF00
039E00
071E00
0E3E00
1C3E00
383C00
707C00
C07C00
FFFF00
FFFF00
00F800
00F800
00F000
01F000
0FFE00
0FFE00
ENDCHAR

STARTCHAR five
ENCODING 53
SWIDTH 562 0
DWIDTH 19 0
BBX 19 23 1 0
BITMAP
01FFE0
03FFE0
03FFC0
07FFC0
060000
060000
0C0000
0CFC00
09FE00
1E1F00
180F80
000F80
000F80
000F80
000F80
781F80
F81F00
F81F00
F03E00
E07E00
70FC00
3FF000
0FC000
ENDCHAR

STARTCHAR six
ENCODING 54
SWIDTH 562 0
DWIDTH 19 0
BBX 18 23 2 0
BITMAP
003E00
01FF80
03C3C0
0787C0
0F07C0
1F0380
3E0000
3E0000
7C7000
7DFC00
7FFE00
FE3F00
FC1F00
F81F00
F81F00
F01F00
F03F00
F03E00
F03E00
787C00
38F800
1FF000
07C000
ENDCHAR

STARTCHAR seven
ENCODING 55
SWIDTH 562 0
DWIDTH 19 0
BBX 16 23 5 0
BITMAP
3FFF
3FFF
7FFE
7FEC
6018
C038
C070
0060
00E0
01C0
0380
0780
0700
0F00
1E00
1E00
3C00
7C00
7C00
7C00
F800
7800
7000
ENDCHAR

STARTCHAR eight
ENCODING 56
SWIDTH 562 0
DWIDTH 19 0
BBX 18 23 1 0
BITMAP
007C00
03FF00
07C780
0F83C0
0F83C0
0F03C0
0F07C0
0F0780
078F80
00FA00
0FFC00
1F1E00
3E0F00
7C0F80
FC0F80
F80F80
F81F80
F81F00
F81F00
783E00
7C7C00
3FF800
07C000
ENDCHAR

STARTCHAR nine
ENCODING 57
SWIDTH 562 0
DWIDTH 19 0
BBX 18 23 1 0
BITMAP
00FC00
03FF00
07C780
0F8380
1F03C0
1F03C0
3F03C0
3E03C0
3E07C0
3E07C0
3E0FC0
1F1FC0
1FFF80
0FEF80
038F80
001F00
001F00
703E00
F83C00
F87800
F0F000
7FE000
1F0000
ENDCHAR

STARTCHAR colon
ENCODING 58
SWIDTH 323 0
DWIDTH 11 0
BBX 10 18 0 0
BITMAP
0300
0780
0FC0
0FC0
0780
0300
0000
0000
0000
0000
0000
0000
3000
7800
FC00
FC00
7800
3000
ENDCHAR

STARTCHAR semicolon
ENCODING 59
SWIDTH 323 0
DWIDTH 11 0
BBX 11 23 -1 -5
BITMAP
0180
03C0
07E0
07E0
03C0
0180
0000
0000
0000
0000
0000
0000
0000
3C00
7E00
7E00
7E00
3E00
0C00
1C00
3800
E000
C000
ENDCHAR

STARTCHAR less
ENCODING 60
SWIDTH 667 0
DWIDTH 22 0
BBX 18 17 2 2
BITMAP
0000C0
0007C0
001FC0
007E00
03F800
0FC000
7F0000
F80000
F00000
FE0000
1F8000
07F000
00FC00
003F00
000FC0
0001C0
000040
ENDCHAR

STARTCHAR equal
ENCODING 61
SWIDTH 667 0
DWIDTH 22 0
BBX 18 11 2 5
BITMAP
FFFFC0
FFFFC0
FFFFC0
000000
000000
000000
000000
000000
FFFFC0
FFFFC0
FFFFC0
ENDCHAR

STARTCHAR greater
ENCODING 62
SWIDTH 667 0
DWIDTH 22 0
BBX 18 17 2 2
BITMAP
C00000
F80000
FE0000
1F8000
07F000
00FC00
003F00
0007C0
0003C0
001FC0
007E00
03F800
0FC000
7F0000
FC0000
E00000
800000
ENDCHAR

STARTCHAR question
ENCODING 63
SWIDTH 458 0
DWIDTH 15 0
BBX 15 26 1 0
BITMAP
03E0
0FF8
1C3C
1C3E
3E3E
3E3E
1C3E
007C
00FC
01F8
03F0
03C0
0700
0600
0C00
0C00
0800
1800
0000
0000
3000
7800
FC00
FC00
7800
3000
ENDCHAR

STARTCHAR at
ENCODING 64
SWIDTH 833 0
DWIDTH 27 0
BBX 27 29 0 -7
BITMAP
003FC000
00E03800
03800C00
06000200
0C000100
18000080
18000080
300EF0C0
20397040
6071F040
6071E040
40E1E040
C0E1E040
C1E1C040
C1C3C040
C3C3C080
C3C7C080
C3C78100
43CB8200
43F78620
61E39820
21C3E040
30000040
10000080
18000100
0C000600
03000C00
01C07000
003F8000
ENDCHAR

STARTCHAR A
ENCODING 65
SWIDTH 802 0
DWIDTH 26 0
BBX 27 25 -2 0
BITMAP
00003800
00003800
00007800
0000F800
0000F800
0001FC00
0003FC00
00037C00
00067C00
000E7C00
000C7C00
00187E00
00383E00
00303E00
00603E00
00FFFE00
00FFFE00
01803F00
03801F00
03001F00
06001F00
0E001F00
1F001F80
7FC0FFE0
FFC0FFE0
ENDCHAR

STARTCHAR B
ENCODING 66
SWIDTH 802 0
DWIDTH 26 0
BBX 26 25 0 0
BITMAP
03FFFC00
07FFFF00
00FC1F80
00FC0FC0
00FC07C0
00F807C0
00F807C0
01F80FC0
01F80F80
01F01F80
01F07E00
03FFE000
03FFF800
03E07E00
03E03F00
07C01F80
07C01F80
07C01F80
0FC01F80
0F801F80
0F803F00
0F807F00
1F81FE00
FFFFF800
FFFFC000
ENDCHAR

STARTCHAR C
ENCODING 67
SWIDTH 740 0
DWIDTH 24 0
BBX 24 25 2 0
BITMAP
001FE0
007FF8
01F83E
07E01F
0FC00E
0F800E
1F800E
3F0006
3F0006
7E0000
7E0000
FE0000
FC0000
FC0000
FC0000
FC0000
FC0000
FC0000
FC0018
7E0030
7E0070
3F00E0
1FC3C0
0FFF80
03FE00
ENDCHAR

STARTCHAR D
ENCODING 68
SWIDTH 854 0
DWIDTH 28 0
BBX 28 25 0 0
BITMAP
07FFF800
07FFFF00
00FC0F80
00FC07C0
00F807E0
00F803E0
01F803E0
01F003F0
01F003F0
03F003F0
03F003F0
03E003F0
03E003F0
07E007E0
07E007E0
07C007E0
07C00FC0
0FC00FC0
0FC01F80
0F801F80
0F803F00
1F807E00
1F81FC00
FFFFF000
FFFF8000
ENDCHAR

STARTCHAR E
ENCODING 69
SWIDTH 740 0
DWIDTH 24 0
BBX 26 25 0 0
BITMAP
07FFFFC0
07FFFF80
00FC0780
00FC0380
00F80380
00F80300
01F80300
01F86300
01F06000
01F0E000
03F1C000
03FFC000
03FFC000
07E3C000
07E18000
07C18000
07C18300
0FC18600
0FC00600
0F800E00
0F801C00
1F803C00
1F80FC00
FFFFF800
FFFFF800
ENDCHAR

STARTCHAR F
ENCODING 70
SWIDTH 729 0
DWIDTH 24 0
BBX 26 25 0 0
BITMAP
07FFFFC0
07FFFFC0
00FC0780
00FC0380
00F80380
00F80180
01F80180
01F83180
01F06000
03F06000
03F1E000
03FFC000
03FFC000
07E3C000
07E1C000
07C18000
07C18000
0FC18000
0FC00000
0F800000
0F800000
1F800000
1F800000
FFFC0000
FFF80000
ENDCHAR

STARTCHAR G
ENCODING 71
SWIDTH 854 0
DWIDTH 28 0
BBX 26 25 2 0
BITMAP
000FE000
007FFC00
01F83F00
03E00F00
07C00700
0FC00700
1F800700
3F000700
3F000200
7F000000
7E000000
7E000000
FE000000
FC03FFC0
FC03FF80
FC007E00
FC007C00
FC007C00
7C00FC00
7C00FC00
3E00F800
3E01F800
1F83F000
07FFC000
01FC0000
ENDCHAR

STARTCHAR H
ENCODING 72
SWIDTH 865 0
DWIDTH 29 0
BBX 32 25 0 0
BITMAP
07FF9FFF
07FF9FFE
00FC03F0
00F803F0
00F803E0
01F803E0
01F807E0
01F007E0
01F007C0
03F007C0
03F00FC0
03FFFFC0
03FFEF80
07E01F80
07E01F80
07C01F00
07C01F00
0FC03F00
0FC03F00
0F803E00
1F803E00
1F807E00
1F807E00
FFF3FFC0
FFF3FFC0
ENDCHAR

STARTCHAR I
ENCODING 73
SWIDTH 479 0
DWIDTH 16 0
BBX 19 25 0 0
BITMAP
03FFE0
07FFC0
007E00
007C00
00FC00
00FC00
00F800
00F800
01F800
01F800
01F000
01F000
03F000
03F000
03E000
03E000
07E000
07E000
07C000
07C000
0FC000
0FC000
0FC000
FFF800
FFF800
ENDCHAR

STARTCHAR J
ENCODING 74
SWIDTH 656 0
DWIDTH 22 0
BBX 25 25 0 0
BITMAP
001FFF80
001FFF00
0001F800
0001F800
0001F000
0001F000
0003F000
0003F000
0003E000
0003E000
0007E000
0007E000
0007C000
0007C000
000FC000
3C0FC000
7E0F8000
7E0F8000
FE1F8000
FC1F0000
F01F0000
703E0000
787C0000
3FF80000
0FE00000
ENDCHAR

STARTCHAR K
ENCODING 75
SWIDTH 823 0
DWIDTH 27 0
BBX 30 25 0 0
BITMAP
07FF9FFC
07FFBFFC
00FC07E0
00FC0780
00F80F00
00F81E00
01F83800
01F87000
01F0E000
03F3C000
03F7C000
03F7E000
03FFE000
07FBE000
07E3F000
07C1F000
07C1F000
0FC1F800
0FC0F800
0F80F800
0F80FC00
1F807C00
1F807E00
FFF3FFC0
FFF7FF80
ENDCHAR

STARTCHAR L
ENCODING 76
SWIDTH 698 0
DWIDTH 23 0
BBX 22 25 0 0
BITMAP
07FFE0
07FFC0
00FC00
00FC00
00F800
00F800
01F800
01F800
01F000
01F000
03F000
03F000
03E000
03E000
07E000
07E000
07C004
0FC00C
0FC00C
0F801C
0F8038
1F8078
1F81F8
FFFFF0
FFFFF0
ENDCHAR

STARTCHAR M
ENCODING 77
SWIDTH 1031 0
DWIDTH 34 0
BBX 37 25 0 0
BITMAP
07FF003FF8
07FF003FF8
00EF0077C0
00DF006F80
00DF00DF80
00DF00DF80
00DF019F00
019F039F00
019F033F00
019F073E00
038F863E00
030F8C7E00
030F9C7E00
030F987C00
060FB87C00
060FB0FC00
060FE0FC00
060FE0F800
0C0FC0F800
0C0FC1F800
0C0F81F800
1C0701F000
3E0703F000
FFC61FFE00
FF861FFE00
ENDCHAR

STARTCHAR N
ENCODING 78
SWIDTH 833 0
DWIDTH 27 0
BBX 31 25 0 0
BITMAP
07FC07FE
07FC07FC
00FE00F0
00FE00E0
00FE00E0
00DF00C0
00DF00C0
019F80C0
018F8180
018FC180
0307C180
0307E180
0303E300
0303F300
0601F300
0601FB00
0600FE00
0600FE00
0C00FE00
0C007E00
0C007C00
1C003C00
3E003C00
FFC01800
FF801800
ENDCHAR

STARTCHAR O
ENCODING 79
SWIDTH 823 0
DWIDTH 27 0
BBX 25 25 2 0
BITMAP
001FC000
007FF800
01F03C00
03E01E00
07C01F00
0F801F00
1F801F00
3F001F80
3F001F80
7F001F80
7E001F80
7E001F80
7E003F80
FC003F00
FC003F00
FC007F00
FC007E00
FC007E00
7C00FC00
7C00F800
7C01F000
3E03E000
1F07C000
0FFF0000
01F80000
ENDCHAR

STARTCHAR P
ENCODING 80
SWIDTH 771 0
DWIDTH 25 0
BBX 27 25 -1 0
BITMAP
03FFFC00
03FFFF00
007E0F80
007C07C0
00FC07E0
00FC07E0
00F807E0
00F807E0
01F807E0
01F80FC0
01F01FC0
01F03F80
03FFFF00
03FFF800
03E00000
03E00000
07E00000
07E00000
07C00000
07C00000
0FC00000
0F800000
0FC00000
7FFC0000
FFF80000
ENDCHAR

STARTCHAR Q
ENCODING 81
SWIDTH 823 0
DWIDTH 27 0
BBX 25 29 2 -4
BITMAP
001FC000
007FF800
01F07C00
03E01E00
07C01F00
0F801F00
1F801F00
3F001F80
3F001F80
7F001F80
7E001F80
7E001F80
FE003F80
FC003F00
FCF83F00
FDFC7F00
FF3E7E00
FE0F7E00
7C0F7C00
7C07F800
7C07F000
3C07E000
1F07C000
0FFFC000
01FDE000
0001E000
0000F800
00007F80
00001F80
ENDCHAR

STARTCHAR R
ENCODING 82
SWIDTH 823 0
DWIDTH 27 0
BBX 26 25 0 0
BITMAP
07FFFC00
07FFFF00
00FC1F80
00FC0F80
00F80FC0
00F80FC0
01F80FC0
01F80FC0
01F01F80
01F03F80
03F07F00
03FFDC00
03FFE000
03E1F000
07E1F800
07C0F800
07C0F800
0FC0F800
0FC0FC00
0F807C00
0F807C00
1F807E00
1F803E00
FFF83F80
FFF03F80
ENDCHAR

STARTCHAR S
ENCODING 83
SWIDTH 667 0
DWIDTH 22 0
BBX 21 25 1 0
BITMAP
007F80
01FFF0
03E0F8
078078
078038
0F8030
0F8030
0FC030
0FE000
07F800
07FE00
03FF00
00FFC0
007FE0
001FE0
0007F0
3003F0
3001F0
3001F0
7001F0
7801E0
7803C0
FE07C0
7FFF00
07F800
ENDCHAR

STARTCHAR T
ENCODING 84
SWIDTH 750 0
DWIDTH 25 0
BBX 24 25 3 0
BITMAP
1FFFFF
1FFFFE
3E3F1E
383E0E
707E0E
707E0E
607C0C
E07C0C
C0FC0C
00FC00
00F800
00F800
01F800
01F800
01F000
01F000
03F000
03F000
03E000
07E000
07E000
07C000
0FE000
FFFC00
FFFC00
ENDCHAR

STARTCHAR U
ENCODING 85
SWIDTH 792 0
DWIDTH 26 0
BBX 25 25 4 0
BITMAP
7FF8FF80
FFF9FF80
1F801E00
0F801C00
1F801800
1F801800
1F001800
3F003800
3F003000
3E003000
3E003000
7E006000
7E006000
7C006000
7C006000
FC00C000
FC00C000
F800C000
F8018000
F8018000
F8030000
FC070000
7E1E0000
3FFC0000
0FF00000
ENDCHAR

STARTCHAR V
ENCODING 86
SWIDTH 771 0
DWIDTH 25 0
BBX 26 25 4 0
BITMAP
FFE0FFC0
FFE0FF80
1F001E00
1F001C00
1F003800
1F003000
1F007000
0F806000
0F80C000
0F80C000
0F818000
0F838000
0F830000
07C60000
07C60000
07CC0000
07DC0000
07D80000
07F00000
03F00000
03E00000
03E00000
03C00000
03800000
03800000
ENDCHAR

STARTCHAR W
ENCODING 87
SWIDTH 1104 0
DWIDTH 36 0
BBX 35 25 5 0
BITMAP
FFCFFF1FE0
FFCFFE1FC0
3F01F00700
3E01F00600
3E01F00E00
1F01F00C00
1F01F01C00
1F01F01800
1F03F03000
1F07F87000
1F06F86000
1F0CF8E000
1F0CF8C000
1F18F9C000
0F38F98000
0FB0FB0000
0FA0FF0000
0FE0FE0000
0FC07E0000
0FC07C0000
0F807C0000
0F00780000
0F00700000
0600700000
0600600000
ENDCHAR

STARTCHAR X
ENCODING 88
SWIDTH 823 0
DWIDTH 27 0
BBX 33 25 -2 0
BITMAP
01FFE1FF80
03FFE3FF00
003F007C00
003F007000
001F00E000
001F81C000
000F838000
000FC70000
0007DE0000
0007F80000
0003E00000
0003F00000
0001F00000
0003F80000
0007F80000
001CF80000
0038FC0000
00707C0000
00E07E0000
01C03E0000
03803F0000
07801F0000
1F803F8000
7FF0FFF000
FFE1FFE000
ENDCHAR

STARTCHAR Y
ENCODING 89
SWIDTH 771 0
DWIDTH 25 0
BBX 26 25 4 0
BITMAP
FFE1FFC0
FFE3FF80
3F003C00
1F803800
1F803000
0F807000
0FC0E000
07C1C000
07E18000
03E30000
03F60000
01F60000
01FC0000
00F80000
01F80000
01F80000
01F00000
01F00000
03F00000
03F00000
03E00000
03E00000
07E00000
3FFE0000
7FFC0000
ENDCHAR

STARTCHAR Z
ENCODING 90
SWIDTH 719 0
DWIDTH 24 0
BBX 25 25 1 0
BITMAP
01FFFF80
01FFFF80
01F07F00
03C07E00
0380FC00
0301F800
0603F800
0607F000
000FE000
000FC000
001F8000
003F0000
007F0000
00FE0000
01FC0000
01F80000
03F00C00
07E01800
0FE01800
1FC03800
3F807000
3F00F000
7E03F000
FFFFE000
FFFFE000
ENDCHAR

STARTCHAR bracketleft
ENCODING 91
SWIDTH 396 0
DWIDTH 13 0
BBX 16 30 0 -5
BITMAP
00FF
01FF
01F0
01F0
01E0
03E0
03E0
03E0
03C0
07C0
07C0
0780
0F80
0F80
0F80
0F00
1F00
1F00
1F00
1E00
3E00
3E00
3E00
3C00
7C00
7C00
7800
F800
FF80
FF00
ENDCHAR

STARTCHAR backslash
ENCODING 92
SWIDTH 552 0
DWIDTH 18 0
BBX 16 28 1 -1
BITMAP
E000
6000
7000
3000
3800
1800
1C00
0C00
0E00
0600
0700
0300
0380
0180
01C0
00C0
00E0
0060
0070
0030
0038
0018
001C
000C
000E
0006
0007
0003
ENDCHAR

STARTCHAR bracketright
ENCODING 93
SWIDTH 396 0
DWIDTH 13 0
BBX 16 30 -2 -5
BITMAP
01FF
01FE
003E
003E
003E
003C
007C
007C
007C
0078
00F8
00F8
00F0
00F0
01F0
01F0
01E0
03E0
03E0
03E0
03C0
07C0
07C0
07C0
0780
0F80
0F80
0F00
FF00
FF00
ENDCHAR

STARTCHAR asciicircum
ENCODING 94
SWIDTH 573 0
DWIDTH 19 0
BBX 15 11 3 11
BITMAP
0180
0380
07C0
06E0
0EE0
0C70
1C30
1838
3018
701C
E00E
ENDCHAR

STARTCHAR underscore
ENCODING 95
SWIDTH 500 0
DWIDTH 17 0
BBX 17 2 0 -7
BITMAP
FFFF80
FFFF80
ENDCHAR

STARTCHAR quoteleft
ENCODING 96
SWIDTH 323 0
DWIDTH 11 0
BBX 7 10 5 15
BITMAP
06
1E
38
70
70
F8
FC
FC
78
78
ENDCHAR

STARTCHAR a
ENCODING 97
SWIDTH 667 0
DWIDTH 22 0
BBX 20 18 1 0
BITMAP
01E020
07F3E0
0FFBE0
1F8FC0
3F07C0
3E07C0
7E07C0
7C0F80
7C0F80
FC0F80
F80F00
F81F00
F81F00
F83E30
F8FE60
7FDEC0
3F9F80
1C1F00
ENDCHAR

STARTCHAR b
ENCODING 98
SWIDTH 635 0
DWIDTH 21 0
BBX 19 26 1 0
BITMAP
0FF000
1FE000
03E000
03E000
03C000
07C000
07C000
07CF00
07BF80
0FBFC0
0FC3E0
0F83E0
1F03E0
1F03E0
1F03E0
1E03E0
3E07E0
3E07C0
3C07C0
7C0F80
7C0F80
781F00
7C3E00
FC7C00
CFF800
83C000
ENDCHAR

STARTCHAR c
ENCODING 99
SWIDTH 510 0
DWIDTH 17 0
BBX 16 18 1 0
BITMAP
01FC
079E
0F0F
1E0F
3E0F
3C06
7C00
7C00
7800
F800
F800
F800
F800
F80C
F81C
7C78
3FE0
1F80
ENDCHAR

STARTCHAR d
ENCODING 100
SWIDTH 667 0
DWIDTH 22 0
BBX 22 25 1 0
BITMAP
0007FC
0007F8
0001F8
0000F8
0001F0
0001F0
0001F0
01E1E0
07F3E0
0FFBE0
1F8FC0
3F07C0
3E07C0
7E07C0
7C0780
7C0F80
FC0F80
F80F00
F81F00
F81F00
F83F30
F87E60
7FFEC0
7F9F80
1C1F00
ENDCHAR

STARTCHAR e
ENCODING 101
SWIDTH 500 0
DWIDTH 17 0
BBX 16 18 1 0
BITMAP
00F8
03FE
070F
1F0F
1E0F
3C1F
7C1E
7C3E
7C78
F9F0
FFC0
FE00
F800
F800
FC1E
7E78
3FF0
1FC0
ENDCHAR

STARTCHAR f
ENCODING 102
SWIDTH 406 0
DWIDTH 13 0
BBX 25 31 -6 -6
BITMAP
00001E00
0000FF80
0001C780
0003C780
00078300
00078000
000F8000
000F0000
007FE000
00FFE000
001F0000
001F0000
001E0000
003E0000
003E0000
003E0000
003C0000
007C0000
007C0000
007C0000
00780000
00780000
00F80000
00F00000
00F00000
00E00000
01E00000
71C00000
FB800000
FF000000
7C000000
ENDCHAR

STARTCHAR g
ENCODING 103
SWIDTH 625 0
DWIDTH 21 0
BBX 23 25 -2 -6
BITMAP
000006
007FFE
01F9CC
03E0E0
07C0F0
07C0F0
07C1F0
0781F0
0781F0
03C3E0
00C7C0
03FF00
0E0000
1C0000
1F0000
1FFF00
1FFFC0
07FFC0
1EFFC0
7803C0
F001C0
F00380
780F00
3FFE00
07E000
ENDCHAR

STARTCHAR h
ENCODING 104
SWIDTH 677 0
DWIDTH 22 0
BBX 21 25 1 0
BITMAP
0FF000
1FE000
03E000
03E000
03E000
07C000
07C000
07C380
078FC0
0F9FE0
0F33E0
0FE3E0
1FC3E0
1F83C0
1F07C0
1E07C0
3E0780
3E0780
3C0F80
7C0F80
7C0F18
781F30
F81F60
F81FC0
F80F80
ENDCHAR

STARTCHAR i
ENCODING 105
SWIDTH 396 0
DWIDTH 13 0
BBX 10 25 2 0
BITMAP
0380
07C0
07C0
07C0
0380
0000
0000
1F80
7F80
1F80
0F00
1F00
1F00
1E00
3E00
3E00
3E00
7C00
7C00
7C00
78C0
F980
FB00
FE00
7C00
ENDCHAR

STARTCHAR j
ENCODING 106
SWIDTH 396 0
DWIDTH 13 0
BBX 16 31 -4 -6
BITMAP
000E
001F
001F
001F
000E
0000
0000
003F
01FE
003E
003E
003E
003C
007C
007C
007C
0078
0078
00F8
00F8
00F0
00F0
01F0
01F0
01E0
01E0
E3C0
E3C0
F380
FF00
3C00
ENDCHAR

STARTCHAR k
ENCODING 107
SWIDTH 646 0
DWIDTH 21 0
BBX 20 25 1 0
BITMAP
0FF000
0FF000
03E000
03E000
03E000
03C000
07C000
07C1E0
07C7F0
0F8EF0
0F9860
0FB000
0F3000
1F4000
1FD800
1FFC00
3F1E00
3E1E00
3E1E00
3C3E00
7C3E60
7C3C60
783CC0
F83F80
F81E00
ENDCHAR

STARTCHAR l
ENCODING 108
SWIDTH 396 0
DWIDTH 13 0
BBX 11 25 2 0
BITMAP
1FE0
1FE0
07C0
07C0
07C0
07C0
0780
0F80
0F80
0F00
1F00
1F00
1F00
1E00
3E00
3E00
3C00
7C00
7C00
7C00
78C0
F980
FB00
FE00
7C00
ENDCHAR

STARTCHAR m
ENCODING 109
SWIDTH 948 0
DWIDTH 31 0
BBX 30 18 1 0
BITMAP
0FC380E0
3FCFE3F0
0FDFE7F8
07B3ECF8
0FE3E8F8
0FC3F0F0
0F87E1F0
1F07C1F0
1F07C3E0
1F0783E0
1E0F83E0
3E0F87C0
3E0F07C0
3C1F078C
7C1F0F98
7C1F0FB0
7C3E0FE0
F83E07C0
ENDCHAR

STARTCHAR n
ENCODING 110
SWIDTH 677 0
DWIDTH 22 0
BBX 21 18 1 0
BITMAP
0FC380
7F8FC0
0F9FE0
0FB3E0
0F63E0
1FC3C0
1F87C0
1F07C0
1E07C0
3E0780
3E0F80
3C0F80
7C0F00
7C0F18
7C1F30
F81F60
F81FC0
F80F80
ENDCHAR

STARTCHAR o
ENCODING 111
SWIDTH 594 0
DWIDTH 20 0
BBX 18 18 1 0
BITMAP
00F800
07FE00
0F8700
1F0780
3E07C0
3E07C0
7C07C0
7C07C0
7C07C0
F80FC0
F80F80
F80F80
F81F00
781F00
783E00
387C00
1FF000
07C000
ENDCHAR

STARTCHAR p
ENCODING 112
SWIDTH 646 0
DWIDTH 21 0
BBX 23 24 -2 -6
BITMAP
01FCF0
07FBFC
00FBFC
00FC3E
00F83E
01F03E
01F03E
01E03E
03E07E
03E07C
03E07C
03C0FC
07C0F8
07C1F8
07E3F0
0FBFE0
0FBFC0
0F8F80
0F0000
1F0000
1F0000
1F0000
3F0000
FFE000
ENDCHAR

STARTCHAR q
ENCODING 113
SWIDTH 625 0
DWIDTH 21 0
BBX 19 24 1 -6
BITMAP
00F820
03FE60
0787E0
1F07C0
1F07C0
3E07C0
7E07C0
7C0F80
7C0F80
FC0F80
F80F00
F81F00
F81F00
F83F00
F87E00
7FDE00
7FBE00
1E3C00
007C00
007C00
007C00
00F800
01FC00
07FF00
ENDCHAR

STARTCHAR r
ENCODING 114
SWIDTH 552 0
DWIDTH 18 0
BBX 18 18 1 0
BITMAP
1F8780
7F8FC0
0F9FC0
0FB380
0F6380
0FE000
1FC000
1F8000
1F0000
1E0000
3E0000
3E0000
3C0000
7C0000
7C0000
7C0000
780000
F80000
ENDCHAR

STARTCHAR s
ENCODING 115
SWIDTH 500 0
DWIDTH 17 0
BBX 16 18 1 0
BITMAP
01F0
07FE
0F1F
1E0F
1E0F
1F00
1F80
0FE0
07F0
03F8
01FC
00FC
707C
F03C
F03C
7878
3FF0
0F80
ENDCHAR

STARTCHAR t
ENCODING 116
SWIDTH 406 0
DWIDTH 13 0
BBX 12 24 2 0
BITMAP
0060
00C0
00C0
01C0
0380
0F80
7FF0
EFF0
1F00
1F00
1F00
1E00
3E00
3E00
3E00
3C00
7C00
7C00
7860
F8C0
F980
FF00
7E00
3800
ENDCHAR

STARTCHAR u
ENCODING 117
SWIDTH 677 0
DWIDTH 22 0
BBX 20 18 2 0
BITMAP
1F81E0
7F83E0
0F83E0
1F03C0
1F07C0
1F07C0
3E0780
3E0F80
3E0F80
3C0F80
7C0F00
7C1F00
783F00
F87E30
F9DE60
FFBEC0
7F3F80
7C1F00
ENDCHAR

STARTCHAR v
ENCODING 118
SWIDTH 562 0
DWIDTH 19 0
BBX 16 18 2 0
BITMAP
1F8E
FF9F
1F1F
1F0F
1F07
1E03
3E03
3E03
3C02
7C06
7C06
7C0C
780C
7818
7838
7C70
3FE0
1F80
ENDCHAR

STARTCHAR w
ENCODING 119
SWIDTH 865 0
DWIDTH 29 0
BBX 25 18 2 0
BITMAP
1F83E700
7F87CF80
1F07CF80
1F07C780
1F078380
1E0F8180
3E0F8180
3E0F0180
3C1F0100
7C1F0300
7C1F0300
783E0600
F83E0600
F86E0C00
F85E1800
F9DF3800
7F0FF000
3E07C000
ENDCHAR

STARTCHAR x
ENCODING 120
SWIDTH 625 0
DWIDTH 21 0
BBX 21 18 0 0
BITMAP
0380F0
07C1F8
0FE3F8
19E670
31F400
00FC00
00F800
00F800
00F800
007800
00FC00
00FC00
01BC00
033E30
F63E60
FE1E60
FC1FC0
F80F00
ENDCHAR

STARTCHAR y
ENCODING 121
SWIDTH 552 0
DWIDTH 18 0
BBX 20 24 -2 -6
BITMAP
01C0E0
03E1F0
07F1F0
0DF0F0
0CF070
08F060
00F060
00F860
00F8C0
00F8C0
007980
007980
007B00
007E00
007E00
007C00
007800
007000
006000
70C000
798000
FF0000
7E0000
380000
ENDCHAR

STARTCHAR z
ENCODING 122
SWIDTH 542 0
DWIDTH 18 0
BBX 18 18 0 0
BITMAP
03E0C0
0FFF80
1FFD80
1FFF00
100E00
301C00
003800
007000
01C000
038000
070000
0C0000
180100
27E300
7FFF00
7FFE00
E3FC00
C0F800
ENDCHAR

STARTCHAR braceleft
ENCODING 123
SWIDTH 396 0
DWIDTH 13 0
BBX 14 29 4 -5
BITMAP
003C
00E0
01C0
0380
0380
0780
0780
0780
0780
0700
0700
0E00
1C00
1000
6000
3800
1C00
1C00
3C00
3C00
7C00
7800
F800
F000
F000
E000
E000
7000
1C00
ENDCHAR

STARTCHAR bar
ENCODING 124
SWIDTH 542 0
DWIDTH 18 0
BBX 3 28 7 -1
BITMAP
E0
E0
E0
E0
E0
E0
E0
E0
E0
E0
E0
E0
E0
E0
E0
E0
E0
E0
E0
E0
E0
E0
E0
E0
E0
E0
E0
E0
ENDCHAR

STARTCHAR braceright
ENCODING 125
SWIDTH 396 0
DWIDTH 13 0
BBX 13 29 1 -5
BITMAP
00E0
0070
0038
0038
0078
0078
00F0
00F0
01E0
01E0
01C0
01C0
00C0
0070
0030
00C0
0380
0700
0700
0F00
0F00
0F00
0F00
0F00
0E00
1E00
1800
7000
C000
ENDCHAR

STARTCHAR asciitilde
ENCODING 126
SWIDTH 667 0
DWIDTH 22 0
BBX 18 5 2 8
BITMAP
3E0040
7FC0C0
63F980
C0FF80
801F00
ENDCHAR

STARTCHAR space
ENCODING 160
SWIDTH 250 0
DWIDTH 10 0
BBX 0 0 0 0
BITMAP
ENDCHAR

STARTCHAR afii10023
ENCODING 161
SWIDTH 740 0
DWIDTH 24 0
BBX 26 31 0 0
BITMAP
003E1F00
003E1F00
003E1F00
001E0F00
00000000
00000000
07FFFFC0
07FFFF80
00FC0780
00F80380
00F80380
01F80300
01F80300
01F06300
01F06000
03F0E000
03E1C000
03FFC000
03FFC000
07E3C000
07E18000
07C18000
07C18300
0FC18600
0FC00600
0F800E00
1F801C00
1F803C00
1F80FC00
FFFFF800
FFFFF800
ENDCHAR

STARTCHAR afii10051
ENCODING 162
SWIDTH 896 0
DWIDTH 30 0
BBX 26 25 2 0
BITMAP
3FFFFE00
3FFFFE00
3C7E1E00
787E0E00
707E0C00
607C0C00
C0FC0C00
00FC0000
00F80000
00F87E00
01FBFF00
01FFFF80
01FE1FC0
01F80FC0
03F00FC0
03F00FC0
03E00FC0
03E00FC0
07E01FC0
07E01F80
07C03F80
0FC03F00
0FC3FE00
7FF9FC00
7FF0F000
ENDCHAR

STARTCHAR afii10052
ENCODING 163
SWIDTH 719 0
DWIDTH 24 0
BBX 27 32 0 0
BITMAP
00001800
00007C00
0000FC00
0001F800
00038000
00000000
00000000
07FFFFE0
07FFFFE0
00FC07C0
00FC03C0
00F801C0
00F801C0
01F801C0
01F80180
01F00180
01F00000
03F00000
03F00000
03E00000
07E00000
07E00000
07C00000
07C00000
0FC00000
0FC00000
0F800000
0F800000
1F800000
1F800000
FFF00000
FFF00000
ENDCHAR

STARTCHAR afii10053
ENCODING 164
SWIDTH 740 0
DWIDTH 24 0
BBX 24 25 2 0
BITMAP
001FE0
00FFF8
01F83E
03E01F
0FC00E
0FC00E
1F800E
3F000E
3F0006
7F0004
7E0000
7E0000
FFFE00
FFFC00
FC0000
FC0000
FC0000
FC0000
FC0018
7E0030
7E0070
3F00E0
1FC3C0
0FFF80
03FC00
ENDCHAR

STARTCHAR afii10054
ENCODING 165
SWIDTH 667 0
DWIDTH 22 0
BBX 21 25 0 0
BITMAP
007F80
01FFF0
03E0F8
078078
078038
0F8030
0F8030
0FC030
0FE000
07F800
07FE00
03FF80
00FFC0
007FE0
001FE0
0007F0
3003F0
3001F0
3001F0
7001F0
7801E0
7803E0
FE07C0
7FFF00
07F800
ENDCHAR

STARTCHAR afii10055
ENCODING 166
SWIDTH 479 0
DWIDTH 16 0
BBX 19 25 0 0
BITMAP
03FFE0
07FFC0
007E00
007C00
00FC00
00FC00
00F800
00F800
01F800
01F800
01F000
01F000
03F000
03F000
03E000
03E000
07E000
07E000
07C000
07C000
0FC000
0FC000
0FC000
FFF800
FFF800
ENDCHAR

STARTCHAR afii10056
ENCODING 167
SWIDTH 479 0
DWIDTH 16 0
BBX 19 31 0 0
BITMAP
01E1E0
01F3E0
01F3E0
00E1E0
000000
000000
07FFC0
07FFC0
007C00
00FC00
00FC00
00F800
00F800
01F800
01F800
01F000
01F000
03F000
03F000
03E000
03E000
07E000
07E000
07C000
07C000
0FC000
0FC000
0F8000
1F8000
FFF800
FFF800
ENDCHAR

STARTCHAR afii10057
ENCODING 168
SWIDTH 656 0
DWIDTH 22 0
BBX 25 25 0 0
BITMAP
001FFF80
001FFF00
0001F800
0001F800
0001F000
0001F000
0003F000
0003F000
0003E000
0003E000
0007E000
0007E000
0007C000
0007C000
000FC000
3C0FC000
7E0F8000
7E0F8000
FE1F8000
FC1F0000
F01F0000
703E0000
787C0000
3FF80000
0FE00000
ENDCHAR

STARTCHAR afii10058
ENCODING 169
SWIDTH 1219 0
DWIDTH 40 0
BBX 39 25 0 0
BITMAP
003FFFFF00
003FFFFF00
000F81F800
000701F000
000703F000
000603F000
000E03F000
000E03E000
000C07E000
000C07E000
001C07C000
001807FFC0
00180FFFF0
00300FC1FC
00300F807C
00300F807E
00601F807E
00601F807E
00C01F007E
00C03F007C
79803F00FC
FF803F01F8
FF003F03F0
FE01FFFFE0
7C03FFFF80
ENDCHAR

STARTCHAR afii10059
ENCODING 170
SWIDTH 1198 0
DWIDTH 40 0
BBX 38 25 0 0
BITMAP
03FF9FFE00
07FF9FFE00
00FC03F000
00FC03E000
00FC07E000
00F807E000
00F807E000
01F807C000
01F80FC000
01F00FC000
03F00F8000
03FFFFFF80
03FFFFFFE0
03E01F83F8
07E01F01F8
07E01F00FC
07C03F00FC
07C03F00FC
0FC03E00FC
0FC07E00FC
0F807E01F8
1F807E03F8
1F807E0FF0
FFF3FFFFC0
FFF3FFFF00
ENDCHAR

STARTCHAR afii10060
ENCODING 171
SWIDTH 917 0
DWIDTH 30 0
BBX 26 25 2 0
BITMAP
1FFFFF00
3FFFFE00
3C3E1E00
787E0E00
707E0C00
607C0C00
C07C0C00
00FC0000
00FC0000
00F87E00
00FBFF00
01FFFF80
01FE1F80
01F01F80
03F01F80
03F01F00
03E01F00
03E03F00
07E03F00
07E03E00
07C03E00
07C07E00
0FC07E00
7FFBFFC0
7FF3FF80
ENDCHAR

STARTCHAR afii10061
ENCODING 172
SWIDTH 833 0
DWIDTH 27 0
BBX 30 31 0 0
BITMAP
00000700
00001F80
00003F00
00007C00
00004000
00000000
07FF80F8
07FF81FC
00FC03FC
00FC037C
00F8067C
01F80E38
01F80C00
01F01C00
01F01800
03F03800
03F07000
03E0E000
03FFC000
07FFE000
07E3F000
07C1F800
07C0F800
0FC0F800
0FC0FC00
0F807C00
1F807E00
1F803E00
1F803F00
FFF03FC0
FFF01FC0
ENDCHAR

STARTCHAR hyphen
ENCODING 173
SWIDTH 323 0
DWIDTH 11 0
BBX 9 3 1 7
BITMAP
7F80
FF00
FF00
ENDCHAR

STARTCHAR afii10062
ENCODING 174
SWIDTH 781 0
DWIDTH 26 0
BBX 27 32 3 0
BITMAP
00307000
00787800
00707800
00387000
003FE000
00078000
00000000
3FF0FFE0
7FF0FFC0
1FC00E00
0FC00C00
0FC01800
0FC03800
07C03000
07C06000
07E0E000
07E0C000
03E18000
03E30000
03F70000
03F60000
01F40000
01FC0000
01F80000
01F00000
00F00000
70E00000
F8C00000
F9800000
FF800000
FF000000
7C000000
ENDCHAR

STARTCHAR afii10145
ENCODING 175
SWIDTH 865 0
DWIDTH 29 0
BBX 32 31 0 -6
BITMAP
07FF9FFF
07FF9FFE
00FC03F0
00F803F0
00F803E0
01F803E0
01F807E0
01F007E0
01F007C0
03F007C0
03F00FC0
03E00FC0
03E00F80
07E01F80
07E01F80
07C01F80
07C01F00
0FC03F00
0FC03F00
0F803F00
0F803E00
1F807E00
1F807E00
FFFFFFC0
FFFFFFC0
00FF0000
007C0000
00380000
00300000
00300000
00300000
ENDCHAR

STARTCHAR afii10017
ENCODING 176
SWIDTH 802 0
DWIDTH 26 0
BBX 27 25 -2 0
BITMAP
00003000
00007000
0000F000
0000F800
0001F800
0003F800
0003F800
0006F800
000EF800
000CFC00
00187C00
00387C00
00307C00
00607C00
00C07C00
00FFFE00
01FFFE00
03803E00
03003E00
06003E00
0E003E00
0E001F00
3E003F00
FF81FFE0
FF81FFC0
ENDCHAR

STARTCHAR afii10018
ENCODING 177
SWIDTH 802 0
DWIDTH 26 0
BBX 28 25 -1 0
BITMAP
03FFFFF0
03FFFFF0
007E01E0
007C00E0
007C00E0
00FC00E0
00FC00C0
00F800C0
00F80000
01F80000
01F80000
01FFF800
01FFFE00
03F03F80
03F00F80
03E00FC0
03E00FC0
07E00FC0
07E00FC0
07C00F80
0FC01F80
0FC03F00
0FC07E00
7FFFFC00
FFFFC000
ENDCHAR

STARTCHAR afii10019
ENCODING 178
SWIDTH 802 0
DWIDTH 26 0
BBX 26 25 0 0
BITMAP
03FFFC00
07FFFF00
00FC1F80
00FC0FC0
00FC07C0
00F807C0
00F807C0
01F80FC0
01F80F80
01F01F80
01F07E00
03FFE000
03FFF800
03E07E00
03E03F00
07C01F00
07C01F80
07C01F80
0FC01F80
0F801F80
0F803F00
0F807F00
1F81FE00
FFFFF800
FFFFC000
ENDCHAR

STARTCHAR afii10020
ENCODING 179
SWIDTH 719 0
DWIDTH 24 0
BBX 27 25 0 0
BITMAP
07FFFFE0
07FFFFE0
00FC07C0
00FC03C0
00F801C0
00F801C0
01F801C0
01F80180
01F00180
01F00000
03F00000
03F00000
03E00000
07E00000
07E00000
07C00000
07C00000
0FC00000
0FC00000
0F800000
0F800000
1F800000
1F800000
FFF00000
FFF00000
ENDCHAR

STARTCHAR afii10021
ENCODING 180
SWIDTH 813 0
DWIDTH 27 0
BBX 33 31 -3 -6
BITMAP
001FFFFF80
001FFFFF80
0003C0FC00
000380F800
000380F800
000301F800
000701F800
000701F000
000603F000
000603F000
000E03E000
000C03E000
001C07E000
001807E000
001807C000
003007C000
00300FC000
00600FC000
00E00F8000
00C00F8000
01801F8000
03001F0000
0C001F8000
7FFFFFF000
7FFFFFE000
780001E000
700000E000
E00000C000
C00000C000
C00000C000
C00000C000
ENDCHAR

STARTCHAR afii10022
ENCODING 181
SWIDTH 740 0
DWIDTH 24 0
BBX 26 25 0 0
BITMAP
07FFFFC0
07FFFF80
00FC0780
00FC0380
00F80380
00F80300
01F80300
01F86300
01F06000
01F0E000
03F1C000
03FFC000
03FFC000
07E3C000
07E18000
07C18000
07C18300
0FC18600
0FC00600
0F800E00
0F801C00
1F803C00
1F80FC00
FFFFF800
FFFFF800
ENDCHAR

STARTCHAR afii10024
ENCODING 182
SWIDTH 1177 0
DWIDTH 39 0
BBX 43 25 -2 0
BITMAP
01E01FFE03C0
03F01FFE07E0
03F807F00FE0
03F803E01FE0
03F803E01DE0
019807E030C0
000807C03000
000807C06000
000C0FC06000
000C0FC0C000
000C0F80C000
000E0F838000
0007FFFE0000
003FFFFF8000
007E1F0FC000
00F81F07C000
01F83F07C000
03F03E03E000
03E03E03E000
07E07E03E000
0FC07E01F000
0F807C01F000
1F807C01F800
FF07FF80FE00
FE07FF80FE00
ENDCHAR

STARTCHAR afii10025
ENCODING 183
SWIDTH 656 0
DWIDTH 22 0
BBX 22 25 0 0
BITMAP
001FC0
01FFF0
03E0F8
03807C
03007C
07007C
06007C
0000FC
0000F8
0001F8
0007E0
01FC80
01FF00
003FC0
000FE0
0007E0
0007E0
0007E0
0007E0
C00FC0
C00FC0
601F80
787F00
3FFE00
0FF800
ENDCHAR

STARTCHAR afii10026
ENCODING 184
SWIDTH 865 0
DWIDTH 29 0
BBX 32 25 -1 0
BITMAP
03FFCFFF
03FFCFFF
007E01F8
007E01F8
007C03F0
00FC03F0
00FC07F0
00F80FF0
00F81BE0
01F833E0
01F877E0
01F0E7E0
01F1C7C0
03F387C0
03F70FC0
03EE0FC0
03EC0F80
07F81F80
07F01F80
07E01F80
07C01F00
0FC03F00
0FC03F00
7FF9FFE0
FFF9FFE0
ENDCHAR

STARTCHAR afii10027
ENCODING 185
SWIDTH 865 0
DWIDTH 29 0
BBX 32 32 -1 0
BITMAP
00018180
0003C3C0
0003C1C0
0001C1C0
0001FF80
00003C00
00000000
03FFCFFF
03FFCFFF
007E01F8
007C01F0
00FC03F0
00FC07F0
00F80FF0
00F81FE0
01F81BE0
01F837E0
01F067E0
01F0C7C0
03F187C0
03F38FC0
03E70FC0
03EE0F80
07EC1F80
07F81F80
07F01F80
07E01F00
0FC03F00
0F803F00
1FC03F00
FFF9FFE0
FFF3FFC0
ENDCHAR

STARTCHAR afii10028
ENCODING 186
SWIDTH 844 0
DWIDTH 28 0
BBX 30 25 0 0
BITMAP
07FF8070
07FF80FC
00FC01FC
00FC03FC
00F803BC
01F80630
01F80E00
01F80C00
01F01C00
03F01800
03F03000
03E0E000
03FFC000
07FFF000
07E1F800
07C0F800
07C0F800
0FC07C00
0FC07C00
0F807C00
1F803C00
1F803E00
1F803F00
FFF03FC0
FFF01FC0
ENDCHAR

STARTCHAR afii10029
ENCODING 187
SWIDTH 865 0
DWIDTH 29 0
BBX 33 25 -1 0
BITMAP
003FFFFF80
003FFFFF00
000780F800
000701F800
000701F000
000701F000
000603F000
000E03F000
000C03E000
000C03E000
000C07E000
001807C000
001807C000
001807C000
00300FC000
00300F8000
00700F8000
00601F8000
00E01F8000
30C01F0000
7DC01F0000
FF803F0000
FF003F0000
7E01FFE000
3801FFC000
ENDCHAR

STARTCHAR afii10030
ENCODING 188
SWIDTH 1031 0
DWIDTH 34 0
BBX 37 25 0 0
BITMAP
07FF003FF8
07FF003FF8
00EF007780
00DF006F80
00DF00DF80
00DF00DF00
00DF019F00
019F039F00
019F033F00
019F073E00
038F863E00
030F8C7E00
030F9C7E00
030F987C00
060FB87C00
060FB0FC00
060FE0FC00
060FE0F800
0C0FC0F800
0C0FC1F800
0C0F81F800
1C0701F000
3E0703F000
FFC61FFE00
FF861FFE00
ENDCHAR

STARTCHAR afii10031
ENCODING 189
SWIDTH 865 0
DWIDTH 29 0
BBX 32 25 0 0
BITMAP
07FF9FFF
07FF9FFE
00FC03F0
00F803F0
00F803E0
01F803E0
01F807E0
01F007E0
01F007C0
03F007C0
03F00FC0
03FFFFC0
03FFEF80
07E01F80
07E01F80
07C01F00
07C01F00
0FC03F00
0FC03F00
0F803E00
0F803E00
1F807E00
1F807E00
FFF3FFC0
FFF3FFC0
ENDCHAR

STARTCHAR afii10032
ENCODING 190
SWIDTH 823 0
DWIDTH 27 0
BBX 25 25 2 0
BITMAP
001FC000
007FF800
01F03C00
03E01E00
07C01F00
0F801F00
1F801F00
3F001F80
3F001F80
7F001F80
7E001F80
7E001F80
FE003F00
FE003F00
FC003F00
FC007F00
FC007E00
FC007E00
7C00FC00
7C00F800
7C01F000
3E03E000
1F07C000
0FFF0000
01F80000
ENDCHAR

STARTCHAR afii10033
ENCODING 191
SWIDTH 865 0
DWIDTH 29 0
BBX 32 25 -1 0
BITMAP
03FFFFFF
03FFFFFF
007E01F8
007C01F8
007C01F0
00FC03F0
00FC03F0
00F803F0
00F803E0
01F807E0
01F807E0
01F007C0
03F007C0
03F00FC0
03F00FC0
03E00F80
07E00F80
07E01F80
07C01F80
07C01F00
0FC01F00
0FC03F00
0FC03F00
FFF9FFE0
FFF3FFE0
ENDCHAR

STARTCHAR afii10034
ENCODING 192
SWIDTH 771 0
DWIDTH 25 0
BBX 27 25 -1 0
BITMAP
03FFFC00
03FFFF00
007E0F80
007C07C0
00FC07E0
00FC07E0
00F807E0
00F807E0
01F807E0
01F80FC0
01F01FC0
01F03F80
03FFFE00
03FFF800
03E00000
03E00000
07E00000
07E00000
07C00000
07C00000
0FC00000
0F800000
0FC00000
7FFC0000
FFF80000
ENDCHAR

STARTCHAR afii10035
ENCODING 193
SWIDTH 740 0
DWIDTH 24 0
BBX 24 25 2 0
BITMAP
001FE0
007FF8
01F83E
07E01F
0FC00E
0F800E
1F800E
3F0006
3F0006
7E0000
7E0000
FE0000
FC0000
FC0000
FC0000
FC0000
FC0000
FC0000
FC0018
7E0030
7E0070
3F00E0
1FC3C0
0FFF80
03FC00
ENDCHAR

STARTCHAR afii10036
ENCODING 194
SWIDTH 750 0
DWIDTH 25 0
BBX 25 25 3 0
BITMAP
1FFFFF80
1FFFFF00
3E3F0F00
383F0F00
783E0700
703E0600
607E0600
E07C0600
C07C0600
00FC0000
00FC0000
00F80000
00F80000
01F80000
01F80000
01F00000
01F00000
03F00000
03F00000
03E00000
03E00000
07E00000
07E00000
7FFE0000
FFFC0000
ENDCHAR

STARTCHAR afii10037
ENCODING 195
SWIDTH 781 0
DWIDTH 26 0
BBX 27 25 3 0
BITMAP
3FF0FFE0
7FF0FFE0
1FC00F00
0F800E00
0FC01C00
0FC01800
07C03000
07C07000
07E0E000
07E0C000
03E18000
03E38000
03F30000
03F60000
01F60000
01FC0000
01F80000
01F00000
00F00000
F0E00000
F8C00000
F9800000
FF800000
FF000000
7C000000
ENDCHAR

STARTCHAR afii10038
ENCODING 196
SWIDTH 990 0
DWIDTH 33 0
BBX 30 25 2 0
BITMAP
001FFF80
001FFF00
0001F000
007FFF00
03FFFFE0
0FC3F1F0
1F83E0F8
3F07E0F8
3F07E0FC
7E07C0FC
7E07C0FC
FC0FC0FC
FC0FC0FC
FC0F81F8
FC0F81F8
FC1F83F0
7C1F83F0
7C1F07E0
3E1F0FC0
1FFFFF00
0FFFFC00
003E0000
007E0000
03FFE000
03FFE000
ENDCHAR

STARTCHAR afii10039
ENCODING 197
SWIDTH 823 0
DWIDTH 27 0
BBX 33 25 -2 0
BITMAP
01FFE1FF80
03FFE3FF00
003F007C00
003F007000
001F00E000
001F81C000
000F838000
000FC70000
0007DE0000
0007F80000
0003E00000
0003F00000
0001F00000
0003F80000
0007F80000
001CF80000
0038FC0000
00707C0000
00E07E0000
01C03E0000
03803F0000
07801F0000
1F803F8000
7FF0FFF000
FFE1FFE000
ENDCHAR

STARTCHAR afii10040
ENCODING 198
SWIDTH 865 0
DWIDTH 29 0
BBX 32 31 0 -6
BITMAP
07FFDFFF
07FF9FFE
00FC03F0
00FC03F0
00F803E0
01F803E0
01F807E0
01F007E0
01F007C0
03F007C0
03F00FC0
03E00FC0
03E00F80
07E00F80
07E01F80
07C01F80
07C01F00
0FC03F00
0FC03F00
0F803E00
0F803E00
1F807E00
1F007F00
FFFFFFE0
FFFFFFC0
000003C0
000003C0
000001C0
00000180
00000180
00000180
ENDCHAR

STARTCHAR afii10041
ENCODING 199
SWIDTH 823 0
DWIDTH 27 0
BBX 27 25 4 0
BITMAP
7FF9FFE0
FFF3FFE0
0F803F00
1F803E00
1F807E00
1F007E00
1F007C00
3F007C00
3F00FC00
3E00F800
3E00F800
3E03F800
3F8FF800
3FFEF000
1FF9F000
07E3F000
0003F000
0003E000
0003E000
0007E000
0007E000
0007C000
000FC000
007FF800
007FF800
ENDCHAR

STARTCHAR afii10042
ENCODING 200
SWIDTH 1240 0
DWIDTH 41 0
BBX 44 25 0 0
BITMAP
07FF9FFC7FF0
07FF1FFCFFF0
00FC07E01F80
00F807E01F00
00F807E03F00
01F807C03F00
01F807C03E00
01F00FC03E00
01F00FC07E00
03F00F807E00
03F01F807C00
03E01F807C00
03E01F80FC00
07E01F00FC00
07E03F00F800
07C03F00F800
07C03E01F800
0FC03E01F000
0FC07E01F000
0F807E03F000
1F807C03F000
1F807C03E000
1F00FC03F000
FFFFFFFFFC00
FFFFFFFFFC00
ENDCHAR

STARTCHAR afii10043
ENCODING 201
SWIDTH 1240 0
DWIDTH 41 0
BBX 44 31 0 -6
BITMAP
07FF9FFC7FF0
07FF1FFCFFF0
00FC07E01F80
00F807E01F00
00F807E01F00
01F807C03F00
01F807C03F00
01F00FC03E00
01F00FC07E00
03F00F807E00
03F01F807C00
03E01F807C00
03E01F80FC00
07E01F00FC00
07E03F00F800
07C03F00F800
07C03E01F800
0FC03E01F800
0FC07E01F000
0F807E01F000
1F807C03F000
1F807C03F000
1F00FC03F000
FFFFFFFFFF00
FFFFFFFFFE00
000000001E00
000000000E00
000000000C00
000000000C00
000000000C00
000000001C00
ENDCHAR

STARTCHAR afii10044
ENCODING 202
SWIDTH 938 0
DWIDTH 31 0
BBX 27 25 3 0
BITMAP
1FFFE000
3FFFE000
3C3F0000
383E0000
703E0000
607E0000
607E0000
C07C0000
007C0000
00FC0000
00FC0000
00FFFC00
00FFFF00
01F81FC0
01F807C0
01F007E0
03F007E0
03F007E0
03E007E0
03E007E0
07E00FC0
07E01F80
07E07F00
3FFFFE00
7FFFF000
ENDCHAR

STARTCHAR afii10045
ENCODING 203
SWIDTH 1240 0
DWIDTH 41 0
BBX 45 25 -1 0
BITMAP
03FFC000FFF8
03FFC001FFF8
007E00001F80
007C00001F80
007C00001F00
00FC00003F00
00FC00003F00
00F800003E00
00F800003E00
01F800007E00
01F800007E00
01FFF8007C00
01FFFE007C00
03F01F80FC00
03F00F80FC00
03E00FC0F800
03E00FC0F800
07E00FC1F800
07C00FC1F800
07C00FC1F000
0FC01F83F000
0FC03F03F000
0FC0FE03F000
7FFFFC3FFE00
FFFFE03FFE00
ENDCHAR

STARTCHAR afii10046
ENCODING 204
SWIDTH 802 0
DWIDTH 26 0
BBX 26 25 -1 0
BITMAP
03FFC000
03FFC000
007E0000
007C0000
007C0000
00FC0000
00FC0000
00F80000
00F80000
01F80000
01F80000
01FFF800
01FFFE00
03F03F80
03F00F80
03E00FC0
03E00FC0
07E00FC0
07C00FC0
07C00FC0
0FC01F80
0FC03F00
0FC0FE00
7FFFFC00
FFFFE000
ENDCHAR

STARTCHAR afii10047
ENCODING 205
SWIDTH 740 0
DWIDTH 24 0
BBX 23 25 1 0
BITMAP
007F00
03FFE0
0FC1F0
1F00F8
1E0078
1C007C
38007C
38007E
30007E
00007E
00007E
00007E
007FFE
00FFFE
0000FC
0000FC
0000FC
0001F8
C003F0
C003F0
E007E0
600FC0
783F80
3FFE00
0FF800
ENDCHAR

STARTCHAR afii10048
ENCODING 206
SWIDTH 1135 0
DWIDTH 37 0
BBX 37 26 0 0
BITMAP
0000007F00
07FF81FFC0
07FF87C1E0
00FC0F81F0
00F81F00F0
00F81F00F0
01F83E00F8
01F07E00F8
01F07E00F8
01F0FC00F8
03F0FC00F8
03E0FC01F8
03FFF801F8
03FFF801F8
07E1F801F0
07C1F803F0
07C1F003F0
07C1F003E0
0FC1F007E0
0F81F007C0
0F80F00FC0
0F80F00F80
1F80781F00
1F80783E00
FFF03FF800
FFE00FE000
ENDCHAR

STARTCHAR afii10049
ENCODING 207
SWIDTH 844 0
DWIDTH 28 0
BBX 32 25 -1 0
BITMAP
0003FFFF
001FFFFE
003F81F0
007F03F0
007E03F0
00FC03E0
00FC03E0
00FC07E0
00FC07E0
007C07C0
007C07C0
003E0FC0
0007FFC0
003FFF80
007E0F80
00FC1F80
00FC1F00
01F81F00
03F03F00
07F03F00
07E03E00
0FC03E00
1FC07E00
7F83FFC0
FF03FFC0
ENDCHAR

STARTCHAR afii10065
ENCODING 208
SWIDTH 667 0
DWIDTH 22 0
BBX 20 18 1 0
BITMAP
01E020
07F3E0
0FFBE0
1F8FC0
3F07C0
3E07C0
7E07C0
7C0F80
7C0F80
FC0F80
F80F00
F81F00
F81F00
F83E30
F8FE60
7FDEC0
3F1F80
1C1F00
ENDCHAR

STARTCHAR afii10066
ENCODING 209
SWIDTH 594 0
DWIDTH 20 0
BBX 20 25 2 0
BITMAP
000030
00FFF0
03FFE0
07FFC0
0FFF00
0E0000
1C0000
18F800
33FE00
370F00
6E0F00
4E0F80
7C0F80
FC0F80
F80F80
F80F80
F81F00
F81F00
F01F00
F03E00
F03E00
707C00
78F800
3FE000
078000
ENDCHAR

STARTCHAR afii10067
ENCODING 210
SWIDTH 563 0
DWIDTH 19 0
BBX 17 18 1 0
BITMAP
007C00
03FF00
0F8F80
1F0F80
3E0F80
3E1F00
7C3E00
7C5800
7DE000
FFFC00
F83E00
F83E00
F83E00
783E00
787E00
387C00
1FF800
07C000
ENDCHAR

STARTCHAR afii10068
ENCODING 211
SWIDTH 500 0
DWIDTH 17 0
BBX 16 18 0 0
BITMAP
01FC
07FE
1E3F
001F
001F
003E
003E
00F8
03E0
0F00
3E00
7C00
F800
F800
F81C
FC78
7FE0
1F80
ENDCHAR

STARTCHAR afii10069
ENCODING 212
SWIDTH 594 0
DWIDTH 20 0
BBX 18 26 1 0
BITMAP
01E000
01FC00
001E00
000F00
000780
000780
0003C0
0003C0
03F3C0
0FFBC0
1F8DC0
3F07C0
3E07C0
7E07C0
7C07C0
7C07C0
FC0FC0
F80F80
F80F80
F81F80
F81F00
781E00
783E00
387800
1FF000
078000
ENDCHAR

STARTCHAR afii10070
ENCODING 213
SWIDTH 500 0
DWIDTH 17 0
BBX 16 18 1 0
BITMAP
0078
03FE
070F
1F0F
1E0F
3C1F
7C1E
7C3E
7C78
F9F0
FFC0
FE00
F800
F800
FC1E
7E78
3FF0
1FC0
ENDCHAR

STARTCHAR afii10072
ENCODING 214
SWIDTH 1146 0
DWIDTH 38 0
BBX 37 18 1 0
BITMAP
03F01E07E0
0FF81E1F70
1C7C3C3C78
383E3C7878
003E3CF878
003E78F030
003E79F000
003C79E000
003FFFE000
003CF1E000
007CF3E000
0078F3E000
F079E3E000
F0F1E3E060
F0E1E1F0E0
F1E1E1FBC0
7F83C0FF00
1E03C07E00
ENDCHAR

STARTCHAR afii10073
ENCODING 215
SWIDTH 542 0
DWIDTH 18 0
BBX 16 18 1 0
BITMAP
03FC
0FFE
0E1F
1C0F
180F
180F
001E
003C
01E0
03F8
003C
603E
F03E
F03E
F07C
E07C
71F8
1FE0
ENDCHAR

STARTCHAR afii10074
ENCODING 216
SWIDTH 677 0
DWIDTH 22 0
BBX 20 18 2 0
BITMAP
7F81F0
7F83E0
0F83E0
1F03C0
1F07C0
1F07C0
3E07C0
3E0F80
3E0F80
7C0F80
7C0F00
7C1F00
783F00
F87E30
F9DE60
FFBEC0
7F3F80
7C1F00
ENDCHAR

STARTCHAR afii10075
ENCODING 217
SWIDTH 677 0
DWIDTH 22 0
BBX 20 24 2 0
BITMAP
006080
00F180
007F00
003C00
000000
000000
7F81F0
7F83E0
0F83E0
1F03C0
1F07C0
1F07C0
3E07C0
3E0F80
3E0F80
7C0F80
7C0F00
7C1F00
783F00
F87E30
F9DE60
FFBEC0
7F3F80
7C1F00
ENDCHAR

STARTCHAR afii10076
ENCODING 218
SWIDTH 646 0
DWIDTH 21 0
BBX 21 18 1 0
BITMAP
3FC0F0
7F81F8
0F83F8
0F8278
0F0600
1F0C00
1F0C00
1E1000
3FF800
3FFC00
3E7C00
3E3E00
7C3E00
7C3E00
7C1E00
F81F00
F81FC0
F80FC0
ENDCHAR

STARTCHAR afii10077
ENCODING 219
SWIDTH 708 0
DWIDTH 23 0
BBX 23 18 0 0
BITMAP
01FFFC
007C7C
003878
0070F8
0060F8
0060F8
0040F0
00C1F0
00C1F0
00C1E0
0183E0
0183E0
0303E0
0303C6
E607CC
FE07D8
FC07F0
F803E0
ENDCHAR

STARTCHAR afii10078
ENCODING 220
SWIDTH 948 0
DWIDTH 31 0
BBX 31 18 0 0
BITMAP
01FF01FC
006F01BC
006F0378
006F06F8
006F06F8
004F0CF0
00CF09F0
00CF19F0
00CF31F0
008F31E0
018F63E0
018FC3E0
010FC3C0
030F87C6
F20F87CC
FE0F07D8
FC0E07F0
F80E03E0
ENDCHAR

STARTCHAR afii10079
ENCODING 221
SWIDTH 688 0
DWIDTH 23 0
BBX 21 18 1 0
BITMAP
3FC1F0
3FC1F0
0F81E0
0F83E0
0F83E0
0F03E0
1F03C0
1F07C0
1FFFC0
3FFF80
3E0780
3E0F80
3C0F80
7C0F18
7C1F30
781F60
F81FC0
F80F80
ENDCHAR

STARTCHAR afii10080
ENCODING 222
SWIDTH 594 0
DWIDTH 20 0
BBX 18 18 1 0
BITMAP
00F800
07FE00
0F8700
1F0780
3E07C0
3E07C0
7C07C0
7C07C0
7C07C0
F80FC0
F80F80
F80F80
F81F00
781F00
783E00
387C00
1FF000
07C000
ENDCHAR

STARTCHAR afii10081
ENCODING 223
SWIDTH 677 0
DWIDTH 22 0
BBX 21 18 1 0
BITMAP
3FC380
7F8FC0
0F9FE0
0F33E0
0F63E0
1FC3C0
1F87C0
1F07C0
1E07C0
3E0780
3E0F80
3C0F80
7C0F80
7C0F18
7C1F30
F81F60
F81FC0
F80F80
ENDCHAR

STARTCHAR afii10082
ENCODING 224
SWIDTH 646 0
DWIDTH 21 0
BBX 23 24 -2 -6
BITMAP
00FCF0
07F9FC
00FBFC
00FC3E
00F83E
01F03E
01F03E
01E03E
03E07E
03E07C
03E07C
03C0FC
07C0F8
07C1F8
07E3F0
0FBFE0
0FBFC0
0F8F00
0F0000
1F0000
1F0000
1F0000
3F0000
FFE000
ENDCHAR

STARTCHAR afii10083
ENCODING 225
SWIDTH 510 0
DWIDTH 17 0
BBX 16 18 1 0
BITMAP
00F8
03FE
0F8F
1F0F
1E0F
3C0F
7C00
7C00
7800
F800
F800
F800
F800
F800
F81C
7C78
3FE0
1F80
ENDCHAR

STARTCHAR afii10084
ENCODING 226
SWIDTH 958 0
DWIDTH 32 0
BBX 30 18 0 0
BITMAP
3FC7C1F0
3FCFE3F8
079FEFF8
07B3FCF8
0FE3F9F8
0FC3F1F0
0F87E1F0
1F07C3F0
1F07C3E0
1F0F83E0
3E0F83E0
3E0F87C0
3E0F07C0
3C1F07CC
7C1F0F98
7C1E0FB0
7C3E0FE0
F83E07C0
ENDCHAR

STARTCHAR afii10085
ENCODING 227
SWIDTH 531 0
DWIDTH 18 0
BBX 20 24 -2 -6
BITMAP
01C0E0
07E1F0
07F1F0
0DF0F0
0CF070
08F060
00F060
00F860
00F8C0
00F8C0
007980
007980
007B00
007E00
007E00
007C00
007800
007000
006000
70C000
798000
FF0000
7E0000
380000
ENDCHAR

STARTCHAR afii10086
ENCODING 228
SWIDTH 833 0
DWIDTH 27 0
BBX 26 32 1 -6
BITMAP
00000F00
00003FC0
000073C0
0000E3C0
0001E1C0
0001E000
0003C000
0003C000
03E7DF00
07F79F80
0F9BE7C0
1F0FC3C0
1E0F83C0
3E0F03C0
3C0F03C0
7C1F07C0
7C1F07C0
7C1E07C0
F81E0F80
F83E0F80
F83C0F00
F87E1F00
F87E1E00
7DBD3E00
7F7BFC00
3E79F000
00F80000
20F00000
78E00000
79C00000
7F800000
3E000000
ENDCHAR

STARTCHAR afii10087
ENCODING 229
SWIDTH 615 0
DWIDTH 20 0
BBX 21 18 -1 0
BITMAP
01C078
07E0F8
0FF1F8
0DF338
18FE00
00FC00
00FC00
007C00
007C00
007C00
007C00
00FE00
00BE00
019E10
731F30
FE1F60
7C0FC0
780780
ENDCHAR

STARTCHAR afii10088
ENCODING 230
SWIDTH 677 0
DWIDTH 22 0
BBX 20 24 2 -6
BITMAP
7F81E0
7F83E0
0F83E0
1F03C0
1F07C0
1F07C0
3E0780
3E0F80
3E0F80
7C0F80
7C0F00
7C1F00
783F00
F87E30
F9DE60
FFBEE0
7E3FE0
7C1F40
0000C0
0001C0
0001C0
0003C0
000F80
000800
ENDCHAR

STARTCHAR afii10089
ENCODING 231
SWIDTH 646 0
DWIDTH 21 0
BBX 19 18 1 0
BITMAP
FF07C0
FE07C0
3E0780
3E0F80
3E0F80
3C0F80
7C0F00
7C1F00
7C7F00
3FDE00
1F3E00
003E00
003E00
003C60
007CC0
007D80
007F00
003E00
ENDCHAR

STARTCHAR afii10090
ENCODING 232
SWIDTH 948 0
DWIDTH 31 0
BBX 29 18 1 0
BITMAP
7FC3E0F8
7F83E1F0
0F83C1F0
1F07C1F0
1F07C3E0
1F0783E0
3E0F83E0
3E0F87C0
3E0F07C0
7C1F07C0
7C1F0F80
7C3F0F80
787E1F80
F8FE7F18
F9BEEF30
FF3FDF60
7E3F1FC0
781E0F80
ENDCHAR

STARTCHAR afii10091
ENCODING 233
SWIDTH 948 0
DWIDTH 31 0
BBX 29 23 1 -5
BITMAP
7FC3E0F8
7F83E1F0
0F83C1F0
1F07C1F0
1F07C3E0
1F0783E0
3E0F83E0
3E0F87C0
3E0F07C0
3C1F07C0
7C1F0780
7C3F0F80
787E1F80
F8FE3F00
F9BEEF38
FF3FDF50
7E3F1FF0
781E0FA0
00000060
000000E0
000000E0
000001C0
000007C0
ENDCHAR

STARTCHAR afii10092
ENCODING 234
SWIDTH 646 0
DWIDTH 21 0
BBX 18 18 1 0
BITMAP
3C3000
7FE000
FFE000
86E000
01C000
038000
073C00
0E7F00
1FC780
1F87C0
3F07C0
3F07C0
3E07C0
3E0F80
3E0F80
1E1F00
0F3E00
07F800
ENDCHAR

STARTCHAR afii10093
ENCODING 235
SWIDTH 917 0
DWIDTH 30 0
BBX 27 18 2 0
BITMAP
7F803FC0
FF007F80
1F000F80
1E000F80
1E000F80
3E001F00
3CF01F00
7DFC1F00
7F1E1E00
7E1F3E00
FC1F3E00
F81F3E00
F81F3C00
F83E7C60
F83E7CC0
787C7D80
7CF87F00
1FE03E00
ENDCHAR

STARTCHAR afii10094
ENCODING 236
SWIDTH 604 0
DWIDTH 20 0
BBX 16 18 2 0
BITMAP
FF00
FF00
1E00
1E00
3E00
3E00
3CF0
7DFC
7F1E
7E1F
FC1F
F81F
F81F
F83E
F83E
787C
7CF8
1FE0
ENDCHAR

STARTCHAR afii10095
ENCODING 237
SWIDTH 521 0
DWIDTH 17 0
BBX 16 18 0 0
BITMAP
01F0
07FC
1C1E
181E
301F
001F
001F
001F
07FF
07FE
003E
003E
F07C
F07C
F0F8
F1F0
7FC0
0F00
ENDCHAR

STARTCHAR afii10096
ENCODING 238
SWIDTH 885 0
DWIDTH 29 0
BBX 28 18 0 0
BITMAP
03C03E00
3FC1FF80
07C3E1C0
0F87C1E0
0F8F81E0
0F8F81F0
0F1F81F0
1F1F01F0
1FFF01F0
1FFF03F0
3E3E03E0
3E3E03E0
3E3E07E0
3C1E07C0
7C1E0F80
7C0E1F00
7807FE00
F801F000
ENDCHAR

STARTCHAR afii10097
ENCODING 239
SWIDTH 667 0
DWIDTH 22 0
BBX 22 18 -1 0
BITMAP
007FF8
01FFF8
03F0F0
03E1F0
07C1F0
07C1F0
07C1E0
03C3E0
017FE0
00FFC0
03E7C0
07C7C0
0F87C0
0F878C
1F0F98
3E0FB0
7E0FE0
FC07C0
ENDCHAR

STARTCHAR afii61352
ENCODING 240
SWIDTH 1115 0
DWIDTH 37 0
BBX 38 25 -1 0
BITMAP
00FF003E00
01FF807F00
001F80FF80
001F80FF80
001F80C600
003FC1C000
0037C18000
0037C183F0
0037E18F38
0067E31E38
0063E33C3C
0063F33C3C
0063F77C3C
00C1F6787C
00C1F67878
00C1FE7878
01C1FC38F0
0180FC39E0
0180FC0F80
0180FC0000
7300780000
FF00780000
FE00787FC0
FE00787F80
7C0030FF80
ENDCHAR

STARTCHAR afii10071
ENCODING 241
SWIDTH 500 0
DWIDTH 17 0
BBX 17 25 1 0
BITMAP
078780
078780
078780
078780
000000
000000
000000
007800
03FE00
070F00
1F0F00
1E0F00
3C1F00
7C1E00
7C3E00
7C7800
F9F000
FFC000
FE0000
F80000
F80000
FC1E00
7E7800
3FF000
1FC000
ENDCHAR

STARTCHAR afii10099
ENCODING 242
SWIDTH 635 0
DWIDTH 21 0
BBX 19 30 1 -5
BITMAP
0FF000
0FE000
03E000
03E000
1FFFC0
07C000
07C000
07C3C0
078FC0
0F9FE0
0FF3E0
0FE3E0
1FC3E0
1F87E0
1F07C0
3E07C0
3E07C0
3E0F80
3C0F80
7C0F80
7C1F00
7C1F00
F81E00
F83E00
F83C00
007800
007800
00F000
01E000
078000
ENDCHAR

STARTCHAR afii10100
ENCODING 243
SWIDTH 563 0
DWIDTH 19 0
BBX 21 25 -1 0
BITMAP
0001E0
0003E0
0003E0
000780
000E00
000000
000000
07FFF8
0FFFF8
01F070
01F030
01E030
03E030
03E000
03E000
03C000
07C000
07C000
078000
0F8000
0F8000
0F8000
1F0000
1F8000
FFE000
ENDCHAR

STARTCHAR afii10101
ENCODING 244
SWIDTH 510 0
DWIDTH 17 0
BBX 16 18 1 0
BITMAP
00F8
03FE
0F8F
1F0F
1E0F
3E0F
7C00
7C00
7FE0
FFE0
F800
F800
F800
F800
F81C
7C38
3FE0
1F80
ENDCHAR

STARTCHAR afii10102
ENCODING 245
SWIDTH 500 0
DWIDTH 17 0
BBX 16 18 1 0
BITMAP
01F0
07FE
0F1F
1E0F
1E0F
1F00
1F80
0FE0
07F0
03F8
01FC
00FC
707C
F03C
F03C
7878
3FF0
0F80
ENDCHAR

STARTCHAR afii10103
ENCODING 246
SWIDTH 396 0
DWIDTH 13 0
BBX 10 25 2 0
BITMAP
0380
07C0
07C0
07C0
0380
0000
0000
1F80
7F80
1F80
0F00
1F00
1F00
1E00
3E00
3E00
3E00
7C00
7C00
7C00
78C0
F980
FB00
FE00
7C00
ENDCHAR

STARTCHAR afii10104
ENCODING 247
SWIDTH 396 0
DWIDTH 13 0
BBX 12 25 2 0
BITMAP
38F0
3CF0
3CF0
38F0
0000
0000
0000
7F80
7F00
0F00
1F00
1F00
1E00
1E00
3E00
3E00
3C00
7C00
7C00
7800
78C0
F980
FB00
FE00
7C00
ENDCHAR

STARTCHAR afii10105
ENCODING 248
SWIDTH 396 0
DWIDTH 13 0
BBX 16 31 -4 -6
BITMAP
000E
001F
001F
001F
000E
0000
0000
001F
01FE
003E
003E
003E
003C
003C
007C
007C
0078
0078
00F8
00F8
00F0
00F0
01F0
01F0
01E0
01E0
E3C0
E3C0
F380
FF00
3C00
ENDCHAR

STARTCHAR afii10106
ENCODING 249
SWIDTH 969 0
DWIDTH 32 0
BBX 30 18 0 0
BITMAP
01FFFE00
007C7C00
00387C00
00307800
0060F800
0060F800
0060F3C0
00C1FFF0
00C1F878
00C1F07C
0183F07C
0183E07C
0103E07C
0303E0F8
F303E1F8
FE01E1F0
FC00FFC0
F8003E00
ENDCHAR

STARTCHAR afii10107
ENCODING 250
SWIDTH 917 0
DWIDTH 30 0
BBX 28 18 1 0
BITMAP
0FC0F000
3FC1F000
0781F000
0F81E000
0F83E000
0F03E000
0F03CF00
1FFFFFC0
1FFFE1E0
1E07C1F0
3E0FC1F0
3E0F81F0
3E0F81F0
3C0F83E0
7C0F87E0
7C078FC0
7803FF00
F800F800
ENDCHAR

STARTCHAR afii10108
ENCODING 251
SWIDTH 677 0
DWIDTH 22 0
BBX 20 25 1 0
BITMAP
0FF000
0FE000
03E000
03E000
1FFFC0
07C000
07C000
07C380
078FC0
0F9FE0
0F33E0
0FE3E0
1FC3E0
1F87C0
1F07C0
3E0FC0
3E0F80
3E0F80
3C1F00
7C1F00
7C1F30
783E60
F83EC0
F83F80
F01F00
ENDCHAR

STARTCHAR afii10109
ENCODING 252
SWIDTH 646 0
DWIDTH 21 0
BBX 21 26 1 0
BITMAP
000080
0003C0
0007C0
000780
000F00
001800
000000
000000
3FC0F0
7F81F8
0F83F8
0F8278
0F0600
1F0C00
1F0C00
1E1000
3FF800
3FFC00
3E7C00
3E3E00
7C3E00
7C3E00
7C1E00
F81F00
F81FC0
F80FC0
ENDCHAR

STARTCHAR section
ENCODING 253
SWIDTH 552 0
DWIDTH 18 0
BBX 18 31 1 -6
BITMAP
003E00
00FF80
01E3C0
03C3C0
03C1C0
03C180
03E000
03F000
03F000
01F800
03FC00
0E7E00
1C7E00
1C3F00
3C1F00
3E1F00
3E0F00
3F0F00
1F0E00
1F9C00
0FF800
0FE000
07F000
03F000
01F000
01F000
E0F000
F0F000
F0E000
F9C000
3F8000
ENDCHAR

STARTCHAR afii10110
ENCODING 254
SWIDTH 531 0
DWIDTH 18 0
BBX 20 30 -2 -6
BITMAP
003860
003CC0
003F80
000F00
000000
000000
01C0E0
07E1F0
07F1F0
0DF0F0
0CF070
08F060
00F060
00F860
00F8C0
00F8C0
007980
007980
007B00
007E00
007E00
007C00
007800
007000
006000
70C000
798000
FF0000
7E0000
380000
ENDCHAR

STARTCHAR afii10193
ENCODING 255
SWIDTH 677 0
DWIDTH 22 0
BBX 20 24 2 -6
BITMAP
7F81F0
7F83E0
0F83E0
1F03C0
1F07C0
1F07C0
3E07C0
3E0F80
3E0F80
7C0F80
7C0F00
7C1F00
783F00
F87E30
F9DE60
FFBEC0
7F3F80
1C1F00
380000
700000
700000
700000
E00000
400000
ENDCHAR
ENDFONT
